{"title":"Super Bowl XLV Halftime Show Black Eyed Peas HDTV XviD-2HD","uid":6156966,"size":183459573,"categoryP":"video","categoryS":"tv_shows","magnet":"?xt=urn:btih:e486ac199851a2bf0ed7826ad091c71351900f74&amp;dn=Super+Bowl+XLV+Halftime+Show+Black+Eyed+Peas+HDTV+XviD-2HD&amp;tr=udp%3A%2F%2Ftracker.openbittorrent.com%3A80&amp;tr=udp%3A%2F%2Fopen.demonii.com%3A1337&amp;tr=udp%3A%2F%2Ftracker.coppersurfer.tk%3A6969&amp;tr=udp%3A%2F%2Fexodus.desync.com%3A6969","seeders":1,"leechers":0,"uploader":"TheCloon","files":-1,"time":1297074551,"description":"Super Bowl XLV Halftime Show Black Eyed Peas HDTV XviD-2HD\n\nPlot:\nB.E.P performing during SuperBowl Half-Time\n\n[code]\nFormat                           : AVI\nFormat/Info                      : Audio Video Interleave\nFile size                        : 175 MiB\nDuration                         : 12mn 54s\nOverall bit rate                 : 1 894 Kbps\nWriting application              : MEncoder SVN-r32669-4.3.2\nWriting library                  : MPlayer\n\nVideo\nID                               : 0\nFormat                           : MPEG-4 Visual\nFormat profile                   : Advanced Simple@L5\nFormat settings, BVOP            : 1\nFormat settings, QPel            : No\nFormat settings, GMC             : No warppoints\nFormat settings, Matrix          : Default (H.263)\nCodec ID                         : XVID\nCodec ID/Hint                    : XviD\nDuration                         : 12mn 54s\nBit rate                         : 1 715 Kbps\nWidth                            : 624 pixels\nHeight                           : 352 pixels\nDisplay aspect ratio             : 16:9\nFrame rate                       : 29.970 fps\nColor space                      : YUV\nChroma subsampling               : 4:2:0\nBit depth                        : 8 bits\nScan type                        : Progressive\nCompression mode                 : Lossy\nBits/(Pixel*Frame)               : 0.261\nStream size                      : 158 MiB (91%)\nWriting library                  : XviD 1.2.1 (UTC 2008-12-04)\n\nAudio\nID                               : 1\nFormat                           : MPEG Audio\nFormat version                   : Version 1\nFormat profile                   : Layer 3\nMode                             : Joint stereo\nMode extension                   : MS Stereo\nCodec ID                         : 55\nCodec ID/Hint                    : MP3\nDuration                         : 12mn 54s\nBit rate mode                    : Variable\nBit rate                         : 165 Kbps\nChannel(s)                       : 2 channels\nSampling rate                    : 48.0 KHz\nCompression mode                 : Lossy\nStream size                      : 15.2 MiB (9%)\nAlignment                        : Aligned on interleaves\nInterleave, duration             : 24 ms (0.72 video frame)\nInterleave, preload duration     : 531 ms","torrent":{"xt":"urn:btih:e486ac199851a2bf0ed7826ad091c71351900f74","amp;dn":"Super+Bowl+XLV+Halftime+Show+Black+Eyed+Peas+HDTV+XviD-2HD","amp;tr":["udp%3A%2F%2Ftracker.openbittorrent.com%3A80","udp%3A%2F%2Fopen.demonii.com%3A1337","udp%3A%2F%2Ftracker.coppersurfer.tk%3A6969","udp%3A%2F%2Fexodus.desync.com%3A6969"],"infoHash":"e486ac199851a2bf0ed7826ad091c71351900f74","infoHashBuffer":{"type":"Buffer","data":[228,134,172,25,152,81,162,191,14,215,130,106,208,145,199,19,81,144,15,116]},"announce":[],"urlList":[]}}